<svg width="861" height="660" viewBox="0 0 861 660" fill="none" xmlns="http://www.w3.org/2000/svg">
<rect x="61.5" y="383.5" width="200" height="200" fill="white" stroke="#45EF30"/>
<rect x="573.5" y="50.5" width="197" height="197" fill="white" stroke="#FA5638"/>
<rect x="362.5" y="224.5" width="188" height="188" fill="white" stroke="#FFA033"/>
<rect x="46.5" y="0.5" width="293" height="293" fill="white" stroke="#9E2DF7"/>
<rect x="589.5" y="375.5" width="224" height="224" fill="white" stroke="#4770FF"/>
<rect x="52" y="4" width="282" height="6.5" fill="#E1BBFF" fill-opacity="0.2"/>
<rect x="52" y="12" width="282" height="10" fill="#E1BBFF" fill-opacity="0.4"/>
<rect x="52" y="24" width="282" height="16" fill="#E1BBFF" fill-opacity="0.7"/>
<rect x="52" y="42" width="282" height="16" fill="#E1BBFF"/>
<rect x="52" y="111" width="282" height="43" fill="#B85FFF"/>
<rect x="578" y="55" width="188" height="7" fill="#FF9D8B" fill-opacity="0.2"/>
<rect x="578" y="64" width="188" height="25" fill="#FF9D8B" fill-opacity="0.4"/>
<rect x="367" y="255" width="179" height="30" fill="#FFC480" fill-opacity="0.7"/>
<rect x="594" y="379" width="215" height="9" fill="#B2C3FF" fill-opacity="0.2"/>
<rect x="594" y="390" width="215" height="14" fill="#B2C3FF" fill-opacity="0.4"/>
<rect x="594" y="406" width="215" height="43" fill="#B2C3FF" fill-opacity="0.7"/>
<rect x="594" y="451" width="215" height="55" fill="#B2C3FF"/>
<rect x="594" y="551" width="215" height="44" fill="#7B98FF"/>
<rect x="821" y="560" width="40" height="40" fill="#4770FF"/>
<rect x="594" y="508" width="215" height="41" fill="#9AB0FF"/>
<rect x="367" y="287" width="179" height="38" fill="#FFC480"/>
<rect x="367" y="377" width="179" height="32" fill="#FFA033"/>
<rect x="314" y="373" width="40" height="40" fill="#FA8C0D"/>
<rect x="367" y="241" width="179" height="12" fill="#FFC480" fill-opacity="0.4"/>
<rect x="66" y="388" width="191" height="8" fill="#A6FF9B" fill-opacity="0.2"/>
<rect x="66" y="398" width="191" height="30" fill="#A6FF9B" fill-opacity="0.4"/>
<rect x="66" y="430" width="191" height="40" fill="#A6FF9B" fill-opacity="0.7"/>
<rect x="66" y="472" width="191" height="48" fill="#A6FF9B"/>
<rect x="66" y="522" width="191" height="31" fill="#79F66A"/>
<rect x="66" y="555" width="191" height="25" fill="#45EF30"/>
<rect x="12" y="544" width="40" height="40" fill="#45EF30"/>
<rect x="367" y="228" width="179" height="11" fill="#FFC480" fill-opacity="0.2"/>
<rect x="367" y="327" width="179" height="48" fill="#FFB156"/>
<rect x="578" y="91" width="188" height="32" fill="#FF9D8B" fill-opacity="0.7"/>
<rect x="578" y="125" width="188" height="81" fill="#FF9D8B"/>
<rect x="578" y="208" width="188" height="36" fill="#FF7F67"/>
<rect x="778" y="208" width="40" height="40" fill="#FA5638"/>
<rect x="52" y="60" width="282" height="49" fill="#D094FF"/>
<rect x="52" y="156" width="282" height="133" fill="#9E2DF7"/>
<path d="M0 253H40V293H0V253Z" fill="#9E2DF7"/>
<path d="M62.6016 610V595.996H70.4824V597.197H63.8613V602.402H69.2227V603.604H63.8613V608.799H70.4824V610H62.6016ZM80.9121 610H80.2578L77.9141 602.461L77.875 601.943L77.8359 602.461L75.4922 610H74.8281L71.4883 600H72.709L75.0918 607.559L75.1309 608.076L75.1699 607.559L77.5137 600H78.2363L80.5703 607.559L80.6094 608.076L80.6484 607.559L83.0312 600H84.252L80.9121 610ZM91.1367 610V602.676C91.1367 602.435 91.0911 602.21 91 602.002C90.9089 601.787 90.7852 601.602 90.6289 601.445C90.4727 601.289 90.2871 601.165 90.0723 601.074C89.8639 600.983 89.6393 600.938 89.3984 600.938H88.5977C88.3568 600.938 88.1289 600.983 87.9141 601.074C87.7057 601.165 87.5234 601.289 87.3672 601.445C87.2109 601.602 87.0872 601.787 86.9961 602.002C86.9049 602.21 86.8594 602.435 86.8594 602.676V610H85.6582V595.996H86.8594V600.84C87.1328 600.514 87.4616 600.26 87.8457 600.078C88.2298 599.896 88.6465 599.805 89.0957 599.805H89.3984C89.8021 599.805 90.1829 599.883 90.541 600.039C90.8991 600.189 91.2116 600.397 91.4785 600.664C91.7454 600.931 91.9538 601.243 92.1035 601.602C92.2598 601.96 92.3379 602.34 92.3379 602.744V610H91.1367ZM101.02 610L100.355 609.004C100.082 609.362 99.7402 609.652 99.3301 609.873C98.9199 610.088 98.4707 610.195 97.9824 610.195H97.6797C97.276 610.195 96.8952 610.12 96.5371 609.971C96.179 609.814 95.8665 609.603 95.5996 609.336C95.3327 609.069 95.1211 608.757 94.9648 608.398C94.8151 608.04 94.7402 607.66 94.7402 607.256V607.158C94.7402 606.755 94.8151 606.374 94.9648 606.016C95.1211 605.658 95.3327 605.345 95.5996 605.078C95.8665 604.811 96.179 604.603 96.5371 604.453C96.8952 604.297 97.276 604.219 97.6797 604.219H100.219V602.676C100.219 602.435 100.173 602.21 100.082 602.002C99.9909 601.787 99.8672 601.602 99.7109 601.445C99.5547 601.289 99.3691 601.165 99.1543 601.074C98.946 600.983 98.7214 600.938 98.4805 600.938H97.7773C97.5365 600.938 97.3086 600.983 97.0938 601.074C96.8854 601.165 96.7031 601.289 96.5469 601.445C96.3906 601.602 96.2669 601.787 96.1758 602.002C96.0846 602.21 96.0391 602.435 96.0391 602.676V603.037L94.8379 602.842V602.744C94.8379 602.34 94.9128 601.96 95.0625 601.602C95.2188 601.243 95.4303 600.931 95.6973 600.664C95.9642 600.397 96.2767 600.189 96.6348 600.039C96.9928 599.883 97.3737 599.805 97.7773 599.805H98.4805C98.8841 599.805 99.265 599.883 99.623 600.039C99.9811 600.189 100.294 600.397 100.561 600.664C100.827 600.931 101.036 601.243 101.186 601.602C101.342 601.96 101.42 602.34 101.42 602.744V610H101.02ZM100.219 605.156H97.6797C97.4388 605.156 97.2109 605.202 96.9961 605.293C96.7878 605.384 96.6055 605.511 96.4492 605.674C96.293 605.83 96.1693 606.016 96.0781 606.23C95.987 606.439 95.9414 606.663 95.9414 606.904V607.324C95.9414 607.565 95.987 607.793 96.0781 608.008C96.1693 608.216 96.293 608.398 96.4492 608.555C96.6055 608.711 96.7878 608.835 96.9961 608.926C97.2109 609.017 97.4388 609.062 97.6797 609.062H98.4805C98.7214 609.062 98.946 609.017 99.1543 608.926C99.3691 608.835 99.5547 608.711 99.7109 608.555C99.8672 608.398 99.9909 608.216 100.082 608.008C100.173 607.793 100.219 607.565 100.219 607.324V605.156ZM118.188 610H117.533L114.809 599.463L114.77 598.916L114.711 599.463L112.006 610H111.352L107.631 595.996H108.891L111.635 606.641L111.674 607.158L111.713 606.641L114.408 595.996H115.111L117.807 606.641L117.846 607.158L117.895 606.641L120.629 595.996H121.889L118.188 610ZM129.877 607.256C129.877 607.66 129.799 608.04 129.643 608.398C129.493 608.757 129.285 609.069 129.018 609.336C128.751 609.603 128.438 609.814 128.08 609.971C127.722 610.12 127.341 610.195 126.938 610.195H126.137C125.733 610.195 125.352 610.12 124.994 609.971C124.636 609.814 124.324 609.603 124.057 609.336C123.79 609.069 123.578 608.757 123.422 608.398C123.272 608.04 123.197 607.66 123.197 607.256V602.744C123.197 602.34 123.272 601.96 123.422 601.602C123.578 601.243 123.79 600.931 124.057 600.664C124.324 600.397 124.636 600.189 124.994 600.039C125.352 599.883 125.733 599.805 126.137 599.805H126.938C127.341 599.805 127.722 599.883 128.08 600.039C128.438 600.189 128.751 600.397 129.018 600.664C129.285 600.931 129.493 601.243 129.643 601.602C129.799 601.96 129.877 602.34 129.877 602.744V607.256ZM128.676 602.676C128.676 602.435 128.63 602.21 128.539 602.002C128.448 601.787 128.324 601.602 128.168 601.445C128.012 601.289 127.826 601.165 127.611 601.074C127.403 600.983 127.178 600.938 126.938 600.938H126.137C125.896 600.938 125.668 600.983 125.453 601.074C125.245 601.165 125.062 601.289 124.906 601.445C124.75 601.602 124.626 601.787 124.535 602.002C124.444 602.21 124.398 602.435 124.398 602.676V607.324C124.398 607.565 124.444 607.793 124.535 608.008C124.626 608.216 124.75 608.398 124.906 608.555C125.062 608.711 125.245 608.835 125.453 608.926C125.668 609.017 125.896 609.062 126.137 609.062H126.938C127.178 609.062 127.403 609.017 127.611 608.926C127.826 608.835 128.012 608.711 128.168 608.555C128.324 608.398 128.448 608.216 128.539 608.008C128.63 607.793 128.676 607.565 128.676 607.324V602.676ZM142.836 610V602.676C142.836 602.435 142.79 602.21 142.699 602.002C142.608 601.787 142.484 601.602 142.328 601.445C142.172 601.289 141.986 601.165 141.771 601.074C141.563 600.983 141.339 600.938 141.098 600.938H140.502C140.261 600.938 140.033 600.983 139.818 601.074C139.61 601.165 139.424 601.289 139.262 601.445C139.105 601.602 138.982 601.787 138.891 602.002C138.799 602.21 138.754 602.435 138.754 602.676V610H137.562V602.676C137.562 602.435 137.517 602.21 137.426 602.002C137.335 601.787 137.208 601.602 137.045 601.445C136.889 601.289 136.703 601.165 136.488 601.074C136.28 600.983 136.055 600.938 135.814 600.938H135.219C134.978 600.938 134.75 600.983 134.535 601.074C134.327 601.165 134.145 601.289 133.988 601.445C133.832 601.602 133.708 601.787 133.617 602.002C133.526 602.21 133.48 602.435 133.48 602.676V610H132.279V600H132.68L133.334 601.016C133.607 600.645 133.949 600.352 134.359 600.137C134.776 599.915 135.229 599.805 135.717 599.805H135.814C136.381 599.805 136.892 599.945 137.348 600.225C137.803 600.505 138.155 600.876 138.402 601.338C138.526 601.11 138.679 600.902 138.861 600.713C139.044 600.524 139.245 600.365 139.467 600.234C139.688 600.098 139.929 599.993 140.189 599.922C140.45 599.844 140.72 599.805 141 599.805H141.098C141.501 599.805 141.882 599.883 142.24 600.039C142.598 600.189 142.911 600.397 143.178 600.664C143.445 600.931 143.653 601.243 143.803 601.602C143.959 601.96 144.037 602.34 144.037 602.744V610H142.836ZM152.719 610L152.055 609.004C151.781 609.362 151.439 609.652 151.029 609.873C150.619 610.088 150.17 610.195 149.682 610.195H149.379C148.975 610.195 148.594 610.12 148.236 609.971C147.878 609.814 147.566 609.603 147.299 609.336C147.032 609.069 146.82 608.757 146.664 608.398C146.514 608.04 146.439 607.66 146.439 607.256V607.158C146.439 606.755 146.514 606.374 146.664 606.016C146.82 605.658 147.032 605.345 147.299 605.078C147.566 604.811 147.878 604.603 148.236 604.453C148.594 604.297 148.975 604.219 149.379 604.219H151.918V602.676C151.918 602.435 151.872 602.21 151.781 602.002C151.69 601.787 151.566 601.602 151.41 601.445C151.254 601.289 151.068 601.165 150.854 601.074C150.645 600.983 150.421 600.938 150.18 600.938H149.477C149.236 600.938 149.008 600.983 148.793 601.074C148.585 601.165 148.402 601.289 148.246 601.445C148.09 601.602 147.966 601.787 147.875 602.002C147.784 602.21 147.738 602.435 147.738 602.676V603.037L146.537 602.842V602.744C146.537 602.34 146.612 601.96 146.762 601.602C146.918 601.243 147.13 600.931 147.396 600.664C147.663 600.397 147.976 600.189 148.334 600.039C148.692 599.883 149.073 599.805 149.477 599.805H150.18C150.583 599.805 150.964 599.883 151.322 600.039C151.68 600.189 151.993 600.397 152.26 600.664C152.527 600.931 152.735 601.243 152.885 601.602C153.041 601.96 153.119 602.34 153.119 602.744V610H152.719ZM151.918 605.156H149.379C149.138 605.156 148.91 605.202 148.695 605.293C148.487 605.384 148.305 605.511 148.148 605.674C147.992 605.83 147.868 606.016 147.777 606.23C147.686 606.439 147.641 606.663 147.641 606.904V607.324C147.641 607.565 147.686 607.793 147.777 608.008C147.868 608.216 147.992 608.398 148.148 608.555C148.305 608.711 148.487 608.835 148.695 608.926C148.91 609.017 149.138 609.062 149.379 609.062H150.18C150.421 609.062 150.645 609.017 150.854 608.926C151.068 608.835 151.254 608.711 151.41 608.555C151.566 608.398 151.69 608.216 151.781 608.008C151.872 607.793 151.918 607.565 151.918 607.324V605.156ZM161 610V602.676C161 602.435 160.954 602.21 160.863 602.002C160.772 601.787 160.648 601.602 160.492 601.445C160.336 601.289 160.15 601.165 159.936 601.074C159.727 600.983 159.503 600.938 159.262 600.938H158.461C158.22 600.938 157.992 600.983 157.777 601.074C157.569 601.165 157.387 601.289 157.23 601.445C157.074 601.602 156.951 601.787 156.859 602.002C156.768 602.21 156.723 602.435 156.723 602.676V610H155.521V600H155.922L156.576 601.016C156.85 600.645 157.191 600.352 157.602 600.137C158.018 599.915 158.471 599.805 158.959 599.805H159.262C159.665 599.805 160.046 599.883 160.404 600.039C160.762 600.189 161.075 600.397 161.342 600.664C161.609 600.931 161.817 601.243 161.967 601.602C162.123 601.96 162.201 602.34 162.201 602.744V610H161ZM171.479 607.461C171.479 607.865 171.397 608.236 171.234 608.574C171.072 608.906 170.85 609.193 170.57 609.434C170.29 609.674 169.965 609.863 169.594 610C169.229 610.13 168.845 610.195 168.441 610.195H167.641C167.237 610.195 166.85 610.12 166.479 609.971C166.114 609.814 165.792 609.603 165.512 609.336C165.238 609.069 165.017 608.757 164.848 608.398C164.685 608.04 164.604 607.66 164.604 607.256V606.855L165.805 606.66V607.324C165.805 607.565 165.854 607.793 165.951 608.008C166.055 608.216 166.192 608.398 166.361 608.555C166.531 608.711 166.726 608.835 166.947 608.926C167.169 609.017 167.4 609.062 167.641 609.062H168.441C168.682 609.062 168.913 609.027 169.135 608.955C169.356 608.883 169.551 608.783 169.721 608.652C169.896 608.516 170.033 608.353 170.131 608.164C170.235 607.975 170.287 607.76 170.287 607.52C170.287 607.161 170.209 606.868 170.053 606.641C169.896 606.413 169.688 606.224 169.428 606.074C169.174 605.918 168.881 605.791 168.549 605.693C168.223 605.589 167.888 605.488 167.543 605.391C167.198 605.286 166.859 605.169 166.527 605.039C166.202 604.909 165.909 604.74 165.648 604.531C165.395 604.316 165.189 604.049 165.033 603.73C164.877 603.411 164.799 603.014 164.799 602.539C164.799 602.135 164.877 601.768 165.033 601.436C165.189 601.097 165.401 600.807 165.668 600.566C165.935 600.326 166.244 600.14 166.596 600.01C166.954 599.873 167.335 599.805 167.738 599.805H168.441C168.845 599.805 169.226 599.883 169.584 600.039C169.942 600.189 170.255 600.397 170.521 600.664C170.788 600.931 170.997 601.243 171.146 601.602C171.303 601.96 171.381 602.34 171.381 602.744V602.783L170.18 602.979V602.676C170.18 602.435 170.134 602.21 170.043 602.002C169.952 601.787 169.828 601.602 169.672 601.445C169.516 601.289 169.33 601.165 169.115 601.074C168.907 600.983 168.682 600.938 168.441 600.938H167.738C167.497 600.938 167.27 600.973 167.055 601.045C166.846 601.117 166.664 601.221 166.508 601.357C166.352 601.488 166.228 601.647 166.137 601.836C166.046 602.025 166 602.24 166 602.48C166 602.826 166.078 603.109 166.234 603.33C166.391 603.545 166.596 603.727 166.85 603.877C167.11 604.027 167.403 604.154 167.729 604.258C168.061 604.355 168.396 604.46 168.734 604.57C169.079 604.674 169.415 604.795 169.74 604.932C170.072 605.068 170.365 605.244 170.619 605.459C170.88 605.674 171.088 605.944 171.244 606.27C171.4 606.589 171.479 606.986 171.479 607.461ZM186.469 606.758C186.469 607.233 186.378 607.679 186.195 608.096C186.02 608.512 185.775 608.877 185.463 609.189C185.15 609.502 184.786 609.749 184.369 609.932C183.952 610.107 183.507 610.195 183.031 610.195H182.035C181.56 610.195 181.111 610.107 180.688 609.932C180.271 609.749 179.906 609.502 179.594 609.189C179.281 608.877 179.034 608.512 178.852 608.096C178.676 607.679 178.588 607.233 178.588 606.758V595.996H179.848V606.758C179.848 607.07 179.906 607.363 180.023 607.637C180.141 607.904 180.3 608.141 180.502 608.35C180.71 608.551 180.948 608.711 181.215 608.828C181.488 608.945 181.781 609.004 182.094 609.004H182.973C183.285 609.004 183.575 608.945 183.842 608.828C184.115 608.711 184.353 608.551 184.555 608.35C184.757 608.141 184.916 607.904 185.033 607.637C185.15 607.363 185.209 607.07 185.209 606.758V595.996H186.469V606.758ZM194.555 610V602.676C194.555 602.435 194.509 602.21 194.418 602.002C194.327 601.787 194.203 601.602 194.047 601.445C193.891 601.289 193.705 601.165 193.49 601.074C193.282 600.983 193.057 600.938 192.816 600.938H192.016C191.775 600.938 191.547 600.983 191.332 601.074C191.124 601.165 190.941 601.289 190.785 601.445C190.629 601.602 190.505 601.787 190.414 602.002C190.323 602.21 190.277 602.435 190.277 602.676V610H189.076V600H189.477L190.131 601.016C190.404 600.645 190.746 600.352 191.156 600.137C191.573 599.915 192.025 599.805 192.514 599.805H192.816C193.22 599.805 193.601 599.883 193.959 600.039C194.317 600.189 194.63 600.397 194.896 600.664C195.163 600.931 195.372 601.243 195.521 601.602C195.678 601.96 195.756 602.34 195.756 602.744V610H194.555ZM198.461 597.598V595.996H199.857V597.598H198.461ZM198.559 610V600H199.76V610H198.559ZM205.707 610H205.111L201.566 600H202.768L205.375 607.578L205.414 608.096L205.453 607.578L208.051 600H209.252L205.707 610ZM217.338 607.256C217.338 607.66 217.26 608.04 217.104 608.398C216.954 608.757 216.745 609.069 216.479 609.336C216.212 609.603 215.899 609.814 215.541 609.971C215.183 610.12 214.802 610.195 214.398 610.195H213.598C213.194 610.195 212.813 610.12 212.455 609.971C212.097 609.814 211.785 609.603 211.518 609.336C211.251 609.069 211.039 608.757 210.883 608.398C210.733 608.04 210.658 607.66 210.658 607.256V602.744C210.658 602.34 210.733 601.96 210.883 601.602C211.039 601.243 211.251 600.931 211.518 600.664C211.785 600.397 212.097 600.189 212.455 600.039C212.813 599.883 213.194 599.805 213.598 599.805H214.398C214.802 599.805 215.183 599.883 215.541 600.039C215.899 600.189 216.212 600.397 216.479 600.664C216.745 600.931 216.954 601.243 217.104 601.602C217.26 601.96 217.338 602.34 217.338 602.744V605.098H211.859V607.324C211.859 607.565 211.905 607.793 211.996 608.008C212.087 608.216 212.211 608.398 212.367 608.555C212.523 608.711 212.706 608.835 212.914 608.926C213.129 609.017 213.357 609.062 213.598 609.062H214.398C214.639 609.062 214.864 609.017 215.072 608.926C215.287 608.835 215.473 608.711 215.629 608.555C215.785 608.398 215.909 608.216 216 608.008C216.091 607.793 216.137 607.565 216.137 607.324V606.66L217.338 606.855V607.256ZM216.137 602.676C216.137 602.435 216.091 602.21 216 602.002C215.909 601.787 215.785 601.602 215.629 601.445C215.473 601.289 215.287 601.165 215.072 601.074C214.864 600.983 214.639 600.938 214.398 600.938H213.598C213.357 600.938 213.129 600.983 212.914 601.074C212.706 601.165 212.523 601.289 212.367 601.445C212.211 601.602 212.087 601.787 211.996 602.002C211.905 602.21 211.859 602.435 211.859 602.676V604.16H216.137V602.676ZM222.68 601.143C222.439 601.143 222.211 601.188 221.996 601.279C221.788 601.37 221.605 601.494 221.449 601.65C221.293 601.807 221.169 601.992 221.078 602.207C220.987 602.415 220.941 602.64 220.941 602.881V610H219.74V600H220.141L220.795 601.016C221.068 600.645 221.41 600.352 221.82 600.137C222.237 599.915 222.689 599.805 223.178 599.805H223.881V601.143H222.68ZM232.357 607.461C232.357 607.865 232.276 608.236 232.113 608.574C231.951 608.906 231.729 609.193 231.449 609.434C231.169 609.674 230.844 609.863 230.473 610C230.108 610.13 229.724 610.195 229.32 610.195H228.52C228.116 610.195 227.729 610.12 227.357 609.971C226.993 609.814 226.671 609.603 226.391 609.336C226.117 609.069 225.896 608.757 225.727 608.398C225.564 608.04 225.482 607.66 225.482 607.256V606.855L226.684 606.66V607.324C226.684 607.565 226.732 607.793 226.83 608.008C226.934 608.216 227.071 608.398 227.24 608.555C227.41 608.711 227.605 608.835 227.826 608.926C228.048 609.017 228.279 609.062 228.52 609.062H229.32C229.561 609.062 229.792 609.027 230.014 608.955C230.235 608.883 230.43 608.783 230.6 608.652C230.775 608.516 230.912 608.353 231.01 608.164C231.114 607.975 231.166 607.76 231.166 607.52C231.166 607.161 231.088 606.868 230.932 606.641C230.775 606.413 230.567 606.224 230.307 606.074C230.053 605.918 229.76 605.791 229.428 605.693C229.102 605.589 228.767 605.488 228.422 605.391C228.077 605.286 227.738 605.169 227.406 605.039C227.081 604.909 226.788 604.74 226.527 604.531C226.273 604.316 226.068 604.049 225.912 603.73C225.756 603.411 225.678 603.014 225.678 602.539C225.678 602.135 225.756 601.768 225.912 601.436C226.068 601.097 226.28 600.807 226.547 600.566C226.814 600.326 227.123 600.14 227.475 600.01C227.833 599.873 228.214 599.805 228.617 599.805H229.32C229.724 599.805 230.105 599.883 230.463 600.039C230.821 600.189 231.133 600.397 231.4 600.664C231.667 600.931 231.876 601.243 232.025 601.602C232.182 601.96 232.26 602.34 232.26 602.744V602.783L231.059 602.979V602.676C231.059 602.435 231.013 602.21 230.922 602.002C230.831 601.787 230.707 601.602 230.551 601.445C230.395 601.289 230.209 601.165 229.994 601.074C229.786 600.983 229.561 600.938 229.32 600.938H228.617C228.376 600.938 228.148 600.973 227.934 601.045C227.725 601.117 227.543 601.221 227.387 601.357C227.23 601.488 227.107 601.647 227.016 601.836C226.924 602.025 226.879 602.24 226.879 602.48C226.879 602.826 226.957 603.109 227.113 603.33C227.27 603.545 227.475 603.727 227.729 603.877C227.989 604.027 228.282 604.154 228.607 604.258C228.939 604.355 229.275 604.46 229.613 604.57C229.958 604.674 230.294 604.795 230.619 604.932C230.951 605.068 231.244 605.244 231.498 605.459C231.758 605.674 231.967 605.944 232.123 606.27C232.279 606.589 232.357 606.986 232.357 607.461ZM234.965 597.598V595.996H236.361V597.598H234.965ZM235.062 610V600H236.264V610H235.062ZM242.719 610C242.354 610 242.009 609.932 241.684 609.795C241.365 609.658 241.085 609.469 240.844 609.229C240.609 608.988 240.421 608.708 240.277 608.389C240.141 608.07 240.072 607.728 240.072 607.363V601.143H238.275V600H240.072V597.598L241.273 597.402V600H243.812V601.143H241.273V607.422C241.273 607.624 241.309 607.812 241.381 607.988C241.459 608.158 241.563 608.307 241.693 608.438C241.824 608.568 241.977 608.672 242.152 608.75C242.328 608.822 242.517 608.857 242.719 608.857H243.812V610H242.719ZM247.65 614.004H246.488L248.266 609.141L245.023 600H246.225L248.832 607.578L248.871 608.096L248.91 607.578L251.508 600H252.709L247.65 614.004Z" fill="#32386A"/>
<path d="M371.277 434.758C371.277 435.233 371.18 435.679 370.984 436.096C370.796 436.512 370.538 436.877 370.213 437.189C369.894 437.502 369.52 437.749 369.09 437.932C368.667 438.107 368.217 438.195 367.742 438.195H366.736C366.261 438.195 365.809 438.107 365.379 437.932C364.956 437.749 364.581 437.502 364.256 437.189C363.937 436.877 363.68 436.512 363.484 436.096C363.296 435.679 363.201 435.233 363.201 434.758V434.201L364.461 433.996V434.758C364.461 435.07 364.523 435.363 364.646 435.637C364.777 435.904 364.949 436.141 365.164 436.35C365.379 436.551 365.626 436.711 365.906 436.828C366.193 436.945 366.492 437.004 366.805 437.004H367.684C367.996 437.004 368.292 436.945 368.572 436.828C368.852 436.711 369.1 436.551 369.314 436.35C369.529 436.141 369.699 435.904 369.822 435.637C369.952 435.363 370.018 435.07 370.018 434.758V434.338C370.018 433.856 369.923 433.456 369.734 433.137C369.546 432.818 369.295 432.548 368.982 432.326C368.67 432.098 368.315 431.906 367.918 431.75C367.527 431.594 367.124 431.438 366.707 431.281C366.29 431.125 365.883 430.952 365.486 430.764C365.096 430.575 364.744 430.34 364.432 430.061C364.119 429.774 363.868 429.426 363.68 429.016C363.491 428.605 363.396 428.101 363.396 427.502V427.238C363.396 426.763 363.484 426.317 363.66 425.9C363.842 425.484 364.09 425.119 364.402 424.807C364.715 424.494 365.079 424.25 365.496 424.074C365.919 423.892 366.368 423.801 366.844 423.801H367.742C368.217 423.801 368.663 423.892 369.08 424.074C369.497 424.25 369.861 424.494 370.174 424.807C370.486 425.119 370.73 425.484 370.906 425.9C371.089 426.317 371.18 426.763 371.18 427.238V427.6L369.92 427.805V427.238C369.92 426.926 369.861 426.636 369.744 426.369C369.627 426.096 369.467 425.858 369.266 425.656C369.064 425.454 368.826 425.295 368.553 425.178C368.286 425.061 367.996 425.002 367.684 425.002H366.902C366.59 425.002 366.297 425.061 366.023 425.178C365.757 425.295 365.519 425.454 365.311 425.656C365.109 425.858 364.949 426.096 364.832 426.369C364.715 426.636 364.656 426.926 364.656 427.238V427.502C364.656 427.951 364.751 428.329 364.939 428.635C365.128 428.941 365.379 429.204 365.691 429.426C366.004 429.641 366.355 429.829 366.746 429.992C367.143 430.148 367.55 430.311 367.967 430.48C368.383 430.643 368.787 430.826 369.178 431.027C369.575 431.223 369.93 431.467 370.242 431.76C370.555 432.046 370.805 432.398 370.994 432.814C371.183 433.231 371.277 433.739 371.277 434.338V434.758ZM380.271 435.256C380.271 435.66 380.193 436.04 380.037 436.398C379.887 436.757 379.679 437.069 379.412 437.336C379.145 437.603 378.833 437.814 378.475 437.971C378.117 438.12 377.736 438.195 377.332 438.195H376.531C376.128 438.195 375.747 438.12 375.389 437.971C375.031 437.814 374.718 437.603 374.451 437.336C374.184 437.069 373.973 436.757 373.816 436.398C373.667 436.04 373.592 435.66 373.592 435.256V430.744C373.592 430.34 373.667 429.96 373.816 429.602C373.973 429.243 374.184 428.931 374.451 428.664C374.718 428.397 375.031 428.189 375.389 428.039C375.747 427.883 376.128 427.805 376.531 427.805H377.332C377.736 427.805 378.117 427.883 378.475 428.039C378.833 428.189 379.145 428.397 379.412 428.664C379.679 428.931 379.887 429.243 380.037 429.602C380.193 429.96 380.271 430.34 380.271 430.744V433.098H374.793V435.324C374.793 435.565 374.839 435.793 374.93 436.008C375.021 436.216 375.145 436.398 375.301 436.555C375.457 436.711 375.639 436.835 375.848 436.926C376.062 437.017 376.29 437.062 376.531 437.062H377.332C377.573 437.062 377.798 437.017 378.006 436.926C378.221 436.835 378.406 436.711 378.562 436.555C378.719 436.398 378.842 436.216 378.934 436.008C379.025 435.793 379.07 435.565 379.07 435.324V434.66L380.271 434.855V435.256ZM379.07 430.676C379.07 430.435 379.025 430.21 378.934 430.002C378.842 429.787 378.719 429.602 378.562 429.445C378.406 429.289 378.221 429.165 378.006 429.074C377.798 428.983 377.573 428.938 377.332 428.938H376.531C376.29 428.938 376.062 428.983 375.848 429.074C375.639 429.165 375.457 429.289 375.301 429.445C375.145 429.602 375.021 429.787 374.93 430.002C374.839 430.21 374.793 430.435 374.793 430.676V432.16H379.07V430.676ZM389.354 435.256C389.354 435.66 389.275 436.04 389.119 436.398C388.969 436.757 388.761 437.069 388.494 437.336C388.227 437.603 387.915 437.814 387.557 437.971C387.199 438.12 386.818 438.195 386.414 438.195H385.613C385.21 438.195 384.829 438.12 384.471 437.971C384.113 437.814 383.8 437.603 383.533 437.336C383.266 437.069 383.055 436.757 382.898 436.398C382.749 436.04 382.674 435.66 382.674 435.256V430.744C382.674 430.34 382.749 429.96 382.898 429.602C383.055 429.243 383.266 428.931 383.533 428.664C383.8 428.397 384.113 428.189 384.471 428.039C384.829 427.883 385.21 427.805 385.613 427.805H386.414C386.818 427.805 387.199 427.883 387.557 428.039C387.915 428.189 388.227 428.397 388.494 428.664C388.761 428.931 388.969 429.243 389.119 429.602C389.275 429.96 389.354 430.34 389.354 430.744V435.256ZM388.152 430.676C388.152 430.435 388.107 430.21 388.016 430.002C387.924 429.787 387.801 429.602 387.645 429.445C387.488 429.289 387.303 429.165 387.088 429.074C386.88 428.983 386.655 428.938 386.414 428.938H385.613C385.372 428.938 385.145 428.983 384.93 429.074C384.721 429.165 384.539 429.289 384.383 429.445C384.227 429.602 384.103 429.787 384.012 430.002C383.921 430.21 383.875 430.435 383.875 430.676V435.324C383.875 435.565 383.921 435.793 384.012 436.008C384.103 436.216 384.227 436.398 384.383 436.555C384.539 436.711 384.721 436.835 384.93 436.926C385.145 437.017 385.372 437.062 385.613 437.062H386.414C386.655 437.062 386.88 437.017 387.088 436.926C387.303 436.835 387.488 436.711 387.645 436.555C387.801 436.398 387.924 436.216 388.016 436.008C388.107 435.793 388.152 435.565 388.152 435.324V430.676ZM398.035 438L397.371 436.984C397.098 437.355 396.756 437.652 396.346 437.873C395.936 438.088 395.486 438.195 394.998 438.195H394.695C394.292 438.195 393.911 438.12 393.553 437.971C393.195 437.814 392.882 437.603 392.615 437.336C392.348 437.069 392.137 436.757 391.98 436.398C391.831 436.04 391.756 435.66 391.756 435.256V428H392.957V435.324C392.957 435.565 393.003 435.793 393.094 436.008C393.185 436.216 393.309 436.398 393.465 436.555C393.621 436.711 393.803 436.835 394.012 436.926C394.227 437.017 394.454 437.062 394.695 437.062H395.496C395.737 437.062 395.962 437.017 396.17 436.926C396.385 436.835 396.57 436.711 396.727 436.555C396.883 436.398 397.007 436.216 397.098 436.008C397.189 435.793 397.234 435.565 397.234 435.324V428H398.436V438H398.035ZM401.238 438V423.996H402.439V438H401.238ZM413.66 425.197V438H412.4V425.197H409.061V423.996H417V425.197H413.66ZM424.49 435.256C424.49 435.66 424.412 436.04 424.256 436.398C424.106 436.757 423.898 437.069 423.631 437.336C423.364 437.603 423.051 437.814 422.693 437.971C422.335 438.12 421.954 438.195 421.551 438.195H420.75C420.346 438.195 419.965 438.12 419.607 437.971C419.249 437.814 418.937 437.603 418.67 437.336C418.403 437.069 418.191 436.757 418.035 436.398C417.885 436.04 417.811 435.66 417.811 435.256V430.744C417.811 430.34 417.885 429.96 418.035 429.602C418.191 429.243 418.403 428.931 418.67 428.664C418.937 428.397 419.249 428.189 419.607 428.039C419.965 427.883 420.346 427.805 420.75 427.805H421.551C421.954 427.805 422.335 427.883 422.693 428.039C423.051 428.189 423.364 428.397 423.631 428.664C423.898 428.931 424.106 429.243 424.256 429.602C424.412 429.96 424.49 430.34 424.49 430.744V433.098H419.012V435.324C419.012 435.565 419.057 435.793 419.148 436.008C419.24 436.216 419.363 436.398 419.52 436.555C419.676 436.711 419.858 436.835 420.066 436.926C420.281 437.017 420.509 437.062 420.75 437.062H421.551C421.792 437.062 422.016 437.017 422.225 436.926C422.439 436.835 422.625 436.711 422.781 436.555C422.938 436.398 423.061 436.216 423.152 436.008C423.243 435.793 423.289 435.565 423.289 435.324V434.66L424.49 434.855V435.256ZM423.289 430.676C423.289 430.435 423.243 430.21 423.152 430.002C423.061 429.787 422.938 429.602 422.781 429.445C422.625 429.289 422.439 429.165 422.225 429.074C422.016 428.983 421.792 428.938 421.551 428.938H420.75C420.509 428.938 420.281 428.983 420.066 429.074C419.858 429.165 419.676 429.289 419.52 429.445C419.363 429.602 419.24 429.787 419.148 430.002C419.057 430.21 419.012 430.435 419.012 430.676V432.16H423.289V430.676ZM433.572 435.256C433.572 435.66 433.494 436.04 433.338 436.398C433.188 436.757 432.98 437.069 432.713 437.336C432.446 437.603 432.133 437.814 431.775 437.971C431.417 438.12 431.036 438.195 430.633 438.195H429.832C429.428 438.195 429.048 438.12 428.689 437.971C428.331 437.814 428.019 437.603 427.752 437.336C427.485 437.069 427.273 436.757 427.117 436.398C426.967 436.04 426.893 435.66 426.893 435.256V430.744C426.893 430.34 426.967 429.96 427.117 429.602C427.273 429.243 427.485 428.931 427.752 428.664C428.019 428.397 428.331 428.189 428.689 428.039C429.048 427.883 429.428 427.805 429.832 427.805H430.633C431.036 427.805 431.417 427.883 431.775 428.039C432.133 428.189 432.446 428.397 432.713 428.664C432.98 428.931 433.188 429.243 433.338 429.602C433.494 429.96 433.572 430.34 433.572 430.744V431.145L432.371 431.34V430.676C432.371 430.435 432.326 430.21 432.234 430.002C432.143 429.787 432.02 429.602 431.863 429.445C431.707 429.289 431.521 429.165 431.307 429.074C431.098 428.983 430.874 428.938 430.633 428.938H429.832C429.591 428.938 429.363 428.983 429.148 429.074C428.94 429.165 428.758 429.289 428.602 429.445C428.445 429.602 428.322 429.787 428.23 430.002C428.139 430.21 428.094 430.435 428.094 430.676V435.324C428.094 435.565 428.139 435.793 428.23 436.008C428.322 436.216 428.445 436.398 428.602 436.555C428.758 436.711 428.94 436.835 429.148 436.926C429.363 437.017 429.591 437.062 429.832 437.062H430.633C430.874 437.062 431.098 437.017 431.307 436.926C431.521 436.835 431.707 436.711 431.863 436.555C432.02 436.398 432.143 436.216 432.234 436.008C432.326 435.793 432.371 435.565 432.371 435.324V434.66L433.572 434.855V435.256ZM441.453 438V430.676C441.453 430.435 441.408 430.21 441.316 430.002C441.225 429.787 441.102 429.602 440.945 429.445C440.789 429.289 440.604 429.165 440.389 429.074C440.18 428.983 439.956 428.938 439.715 428.938H438.914C438.673 428.938 438.445 428.983 438.23 429.074C438.022 429.165 437.84 429.289 437.684 429.445C437.527 429.602 437.404 429.787 437.312 430.002C437.221 430.21 437.176 430.435 437.176 430.676V438H435.975V423.996H437.176V428.84C437.449 428.514 437.778 428.26 438.162 428.078C438.546 427.896 438.963 427.805 439.412 427.805H439.715C440.118 427.805 440.499 427.883 440.857 428.039C441.215 428.189 441.528 428.397 441.795 428.664C442.062 428.931 442.27 429.243 442.42 429.602C442.576 429.96 442.654 430.34 442.654 430.744V438H441.453Z" fill="#32386A"/>
<path d="M582.438 277L577.164 269.998L582.438 262.996H584L578.619 269.998L584 277H582.438ZM575.602 277V262.996H576.861V277H575.602ZM592.291 274.256C592.291 274.66 592.213 275.04 592.057 275.398C591.907 275.757 591.699 276.069 591.432 276.336C591.165 276.603 590.852 276.814 590.494 276.971C590.136 277.12 589.755 277.195 589.352 277.195H588.551C588.147 277.195 587.766 277.12 587.408 276.971C587.05 276.814 586.738 276.603 586.471 276.336C586.204 276.069 585.992 275.757 585.836 275.398C585.686 275.04 585.611 274.66 585.611 274.256V269.744C585.611 269.34 585.686 268.96 585.836 268.602C585.992 268.243 586.204 267.931 586.471 267.664C586.738 267.397 587.05 267.189 587.408 267.039C587.766 266.883 588.147 266.805 588.551 266.805H589.352C589.755 266.805 590.136 266.883 590.494 267.039C590.852 267.189 591.165 267.397 591.432 267.664C591.699 267.931 591.907 268.243 592.057 268.602C592.213 268.96 592.291 269.34 592.291 269.744V274.256ZM591.09 269.676C591.09 269.435 591.044 269.21 590.953 269.002C590.862 268.787 590.738 268.602 590.582 268.445C590.426 268.289 590.24 268.165 590.025 268.074C589.817 267.983 589.592 267.938 589.352 267.938H588.551C588.31 267.938 588.082 267.983 587.867 268.074C587.659 268.165 587.477 268.289 587.32 268.445C587.164 268.602 587.04 268.787 586.949 269.002C586.858 269.21 586.812 269.435 586.812 269.676V274.324C586.812 274.565 586.858 274.793 586.949 275.008C587.04 275.216 587.164 275.398 587.32 275.555C587.477 275.711 587.659 275.835 587.867 275.926C588.082 276.017 588.31 276.062 588.551 276.062H589.352C589.592 276.062 589.817 276.017 590.025 275.926C590.24 275.835 590.426 275.711 590.582 275.555C590.738 275.398 590.862 275.216 590.953 275.008C591.044 274.793 591.09 274.565 591.09 274.324V269.676ZM597.633 268.143C597.392 268.143 597.164 268.188 596.949 268.279C596.741 268.37 596.559 268.494 596.402 268.65C596.246 268.807 596.122 268.992 596.031 269.207C595.94 269.415 595.895 269.64 595.895 269.881V277H594.693V267H595.094L595.748 268.016C596.021 267.645 596.363 267.352 596.773 267.137C597.19 266.915 597.643 266.805 598.131 266.805H598.834V268.143H597.633ZM607.115 274.256C607.115 274.66 607.037 275.04 606.881 275.398C606.731 275.757 606.523 276.069 606.256 276.336C605.989 276.603 605.676 276.814 605.318 276.971C604.96 277.12 604.579 277.195 604.176 277.195H603.375C602.971 277.195 602.59 277.12 602.232 276.971C601.874 276.814 601.562 276.603 601.295 276.336C601.028 276.069 600.816 275.757 600.66 275.398C600.51 275.04 600.436 274.66 600.436 274.256V269.744C600.436 269.34 600.51 268.96 600.66 268.602C600.816 268.243 601.028 267.931 601.295 267.664C601.562 267.397 601.874 267.189 602.232 267.039C602.59 266.883 602.971 266.805 603.375 266.805H604.176C604.579 266.805 604.96 266.883 605.318 267.039C605.676 267.189 605.989 267.397 606.256 267.664C606.523 267.931 606.731 268.243 606.881 268.602C607.037 268.96 607.115 269.34 607.115 269.744V272.098H601.637V274.324C601.637 274.565 601.682 274.793 601.773 275.008C601.865 275.216 601.988 275.398 602.145 275.555C602.301 275.711 602.483 275.835 602.691 275.926C602.906 276.017 603.134 276.062 603.375 276.062H604.176C604.417 276.062 604.641 276.017 604.85 275.926C605.064 275.835 605.25 275.711 605.406 275.555C605.562 275.398 605.686 275.216 605.777 275.008C605.868 274.793 605.914 274.565 605.914 274.324V273.66L607.115 273.855V274.256ZM605.914 269.676C605.914 269.435 605.868 269.21 605.777 269.002C605.686 268.787 605.562 268.602 605.406 268.445C605.25 268.289 605.064 268.165 604.85 268.074C604.641 267.983 604.417 267.938 604.176 267.938H603.375C603.134 267.938 602.906 267.983 602.691 268.074C602.483 268.165 602.301 268.289 602.145 268.445C601.988 268.602 601.865 268.787 601.773 269.002C601.682 269.21 601.637 269.435 601.637 269.676V271.16H605.914V269.676ZM615.797 277L615.133 276.004C614.859 276.362 614.518 276.652 614.107 276.873C613.697 277.088 613.248 277.195 612.76 277.195H612.457C612.053 277.195 611.673 277.12 611.314 276.971C610.956 276.814 610.644 276.603 610.377 276.336C610.11 276.069 609.898 275.757 609.742 275.398C609.592 275.04 609.518 274.66 609.518 274.256V274.158C609.518 273.755 609.592 273.374 609.742 273.016C609.898 272.658 610.11 272.345 610.377 272.078C610.644 271.811 610.956 271.603 611.314 271.453C611.673 271.297 612.053 271.219 612.457 271.219H614.996V269.676C614.996 269.435 614.951 269.21 614.859 269.002C614.768 268.787 614.645 268.602 614.488 268.445C614.332 268.289 614.146 268.165 613.932 268.074C613.723 267.983 613.499 267.938 613.258 267.938H612.555C612.314 267.938 612.086 267.983 611.871 268.074C611.663 268.165 611.48 268.289 611.324 268.445C611.168 268.602 611.044 268.787 610.953 269.002C610.862 269.21 610.816 269.435 610.816 269.676V270.037L609.615 269.842V269.744C609.615 269.34 609.69 268.96 609.84 268.602C609.996 268.243 610.208 267.931 610.475 267.664C610.742 267.397 611.054 267.189 611.412 267.039C611.77 266.883 612.151 266.805 612.555 266.805H613.258C613.661 266.805 614.042 266.883 614.4 267.039C614.758 267.189 615.071 267.397 615.338 267.664C615.605 267.931 615.813 268.243 615.963 268.602C616.119 268.96 616.197 269.34 616.197 269.744V277H615.797ZM614.996 272.156H612.457C612.216 272.156 611.988 272.202 611.773 272.293C611.565 272.384 611.383 272.511 611.227 272.674C611.07 272.83 610.947 273.016 610.855 273.23C610.764 273.439 610.719 273.663 610.719 273.904V274.324C610.719 274.565 610.764 274.793 610.855 275.008C610.947 275.216 611.07 275.398 611.227 275.555C611.383 275.711 611.565 275.835 611.773 275.926C611.988 276.017 612.216 276.062 612.457 276.062H613.258C613.499 276.062 613.723 276.017 613.932 275.926C614.146 275.835 614.332 275.711 614.488 275.555C614.645 275.398 614.768 275.216 614.859 275.008C614.951 274.793 614.996 274.565 614.996 274.324V272.156ZM583.277 298.758C583.277 299.233 583.186 299.679 583.004 300.096C582.828 300.512 582.584 300.877 582.271 301.189C581.959 301.502 581.594 301.749 581.178 301.932C580.761 302.107 580.315 302.195 579.84 302.195H578.844C578.368 302.195 577.919 302.107 577.496 301.932C577.079 301.749 576.715 301.502 576.402 301.189C576.09 300.877 575.842 300.512 575.66 300.096C575.484 299.679 575.396 299.233 575.396 298.758V287.996H576.656V298.758C576.656 299.07 576.715 299.363 576.832 299.637C576.949 299.904 577.109 300.141 577.311 300.35C577.519 300.551 577.757 300.711 578.023 300.828C578.297 300.945 578.59 301.004 578.902 301.004H579.781C580.094 301.004 580.383 300.945 580.65 300.828C580.924 300.711 581.161 300.551 581.363 300.35C581.565 300.141 581.725 299.904 581.842 299.637C581.959 299.363 582.018 299.07 582.018 298.758V287.996H583.277V298.758ZM591.363 302V294.676C591.363 294.435 591.318 294.21 591.227 294.002C591.135 293.787 591.012 293.602 590.855 293.445C590.699 293.289 590.514 293.165 590.299 293.074C590.09 292.983 589.866 292.938 589.625 292.938H588.824C588.583 292.938 588.355 292.983 588.141 293.074C587.932 293.165 587.75 293.289 587.594 293.445C587.438 293.602 587.314 293.787 587.223 294.002C587.132 294.21 587.086 294.435 587.086 294.676V302H585.885V292H586.285L586.939 293.016C587.213 292.645 587.555 292.352 587.965 292.137C588.382 291.915 588.834 291.805 589.322 291.805H589.625C590.029 291.805 590.41 291.883 590.768 292.039C591.126 292.189 591.438 292.397 591.705 292.664C591.972 292.931 592.18 293.243 592.33 293.602C592.486 293.96 592.564 294.34 592.564 294.744V302H591.363ZM595.27 289.598V287.996H596.666V289.598H595.27ZM595.367 302V292H596.568V302H595.367ZM602.516 302H601.92L598.375 292H599.576L602.184 299.578L602.223 300.096L602.262 299.578L604.859 292H606.061L602.516 302ZM614.146 299.256C614.146 299.66 614.068 300.04 613.912 300.398C613.762 300.757 613.554 301.069 613.287 301.336C613.02 301.603 612.708 301.814 612.35 301.971C611.992 302.12 611.611 302.195 611.207 302.195H610.406C610.003 302.195 609.622 302.12 609.264 301.971C608.906 301.814 608.593 301.603 608.326 301.336C608.059 301.069 607.848 300.757 607.691 300.398C607.542 300.04 607.467 299.66 607.467 299.256V294.744C607.467 294.34 607.542 293.96 607.691 293.602C607.848 293.243 608.059 292.931 608.326 292.664C608.593 292.397 608.906 292.189 609.264 292.039C609.622 291.883 610.003 291.805 610.406 291.805H611.207C611.611 291.805 611.992 291.883 612.35 292.039C612.708 292.189 613.02 292.397 613.287 292.664C613.554 292.931 613.762 293.243 613.912 293.602C614.068 293.96 614.146 294.34 614.146 294.744V297.098H608.668V299.324C608.668 299.565 608.714 299.793 608.805 300.008C608.896 300.216 609.02 300.398 609.176 300.555C609.332 300.711 609.514 300.835 609.723 300.926C609.938 301.017 610.165 301.062 610.406 301.062H611.207C611.448 301.062 611.673 301.017 611.881 300.926C612.096 300.835 612.281 300.711 612.438 300.555C612.594 300.398 612.717 300.216 612.809 300.008C612.9 299.793 612.945 299.565 612.945 299.324V298.66L614.146 298.855V299.256ZM612.945 294.676C612.945 294.435 612.9 294.21 612.809 294.002C612.717 293.787 612.594 293.602 612.438 293.445C612.281 293.289 612.096 293.165 611.881 293.074C611.673 292.983 611.448 292.938 611.207 292.938H610.406C610.165 292.938 609.938 292.983 609.723 293.074C609.514 293.165 609.332 293.289 609.176 293.445C609.02 293.602 608.896 293.787 608.805 294.002C608.714 294.21 608.668 294.435 608.668 294.676V296.16H612.945V294.676ZM619.488 293.143C619.247 293.143 619.02 293.188 618.805 293.279C618.596 293.37 618.414 293.494 618.258 293.65C618.102 293.807 617.978 293.992 617.887 294.207C617.796 294.415 617.75 294.64 617.75 294.881V302H616.549V292H616.949L617.604 293.016C617.877 292.645 618.219 292.352 618.629 292.137C619.046 291.915 619.498 291.805 619.986 291.805H620.689V293.143H619.488ZM629.166 299.461C629.166 299.865 629.085 300.236 628.922 300.574C628.759 300.906 628.538 301.193 628.258 301.434C627.978 301.674 627.652 301.863 627.281 302C626.917 302.13 626.533 302.195 626.129 302.195H625.328C624.924 302.195 624.537 302.12 624.166 301.971C623.801 301.814 623.479 301.603 623.199 301.336C622.926 301.069 622.704 300.757 622.535 300.398C622.372 300.04 622.291 299.66 622.291 299.256V298.855L623.492 298.66V299.324C623.492 299.565 623.541 299.793 623.639 300.008C623.743 300.216 623.88 300.398 624.049 300.555C624.218 300.711 624.413 300.835 624.635 300.926C624.856 301.017 625.087 301.062 625.328 301.062H626.129C626.37 301.062 626.601 301.027 626.822 300.955C627.044 300.883 627.239 300.783 627.408 300.652C627.584 300.516 627.721 300.353 627.818 300.164C627.923 299.975 627.975 299.76 627.975 299.52C627.975 299.161 627.896 298.868 627.74 298.641C627.584 298.413 627.376 298.224 627.115 298.074C626.861 297.918 626.568 297.791 626.236 297.693C625.911 297.589 625.576 297.488 625.23 297.391C624.885 297.286 624.547 297.169 624.215 297.039C623.889 296.909 623.596 296.74 623.336 296.531C623.082 296.316 622.877 296.049 622.721 295.73C622.564 295.411 622.486 295.014 622.486 294.539C622.486 294.135 622.564 293.768 622.721 293.436C622.877 293.097 623.089 292.807 623.355 292.566C623.622 292.326 623.932 292.14 624.283 292.01C624.641 291.873 625.022 291.805 625.426 291.805H626.129C626.533 291.805 626.913 291.883 627.271 292.039C627.63 292.189 627.942 292.397 628.209 292.664C628.476 292.931 628.684 293.243 628.834 293.602C628.99 293.96 629.068 294.34 629.068 294.744V294.783L627.867 294.979V294.676C627.867 294.435 627.822 294.21 627.73 294.002C627.639 293.787 627.516 293.602 627.359 293.445C627.203 293.289 627.018 293.165 626.803 293.074C626.594 292.983 626.37 292.938 626.129 292.938H625.426C625.185 292.938 624.957 292.973 624.742 293.045C624.534 293.117 624.352 293.221 624.195 293.357C624.039 293.488 623.915 293.647 623.824 293.836C623.733 294.025 623.688 294.24 623.688 294.48C623.688 294.826 623.766 295.109 623.922 295.33C624.078 295.545 624.283 295.727 624.537 295.877C624.798 296.027 625.09 296.154 625.416 296.258C625.748 296.355 626.083 296.46 626.422 296.57C626.767 296.674 627.102 296.795 627.428 296.932C627.76 297.068 628.053 297.244 628.307 297.459C628.567 297.674 628.775 297.944 628.932 298.27C629.088 298.589 629.166 298.986 629.166 299.461ZM631.773 289.598V287.996H633.17V289.598H631.773ZM631.871 302V292H633.072V302H631.871ZM639.527 302C639.163 302 638.818 301.932 638.492 301.795C638.173 301.658 637.893 301.469 637.652 301.229C637.418 300.988 637.229 300.708 637.086 300.389C636.949 300.07 636.881 299.728 636.881 299.363V293.143H635.084V292H636.881V289.598L638.082 289.402V292H640.621V293.143H638.082V299.422C638.082 299.624 638.118 299.812 638.189 299.988C638.268 300.158 638.372 300.307 638.502 300.438C638.632 300.568 638.785 300.672 638.961 300.75C639.137 300.822 639.326 300.857 639.527 300.857H640.621V302H639.527ZM644.459 306.004H643.297L645.074 301.141L641.832 292H643.033L645.641 299.578L645.68 300.096L645.719 299.578L648.316 292H649.518L644.459 306.004Z" fill="#32386A"/>
<path d="M55.2773 315.758C55.2773 316.233 55.1797 316.679 54.9844 317.096C54.7956 317.512 54.5384 317.877 54.2129 318.189C53.8939 318.502 53.5195 318.749 53.0898 318.932C52.6667 319.107 52.2174 319.195 51.7422 319.195H50.7363C50.2611 319.195 49.8086 319.107 49.3789 318.932C48.9557 318.749 48.5814 318.502 48.2559 318.189C47.9368 317.877 47.6797 317.512 47.4844 317.096C47.2956 316.679 47.2012 316.233 47.2012 315.758V315.201L48.4609 314.996V315.758C48.4609 316.07 48.5228 316.363 48.6465 316.637C48.7767 316.904 48.9492 317.141 49.1641 317.35C49.3789 317.551 49.6263 317.711 49.9062 317.828C50.1927 317.945 50.4922 318.004 50.8047 318.004H51.6836C51.9961 318.004 52.2923 317.945 52.5723 317.828C52.8522 317.711 53.0996 317.551 53.3145 317.35C53.5293 317.141 53.6986 316.904 53.8223 316.637C53.9525 316.363 54.0176 316.07 54.0176 315.758V315.338C54.0176 314.856 53.9232 314.456 53.7344 314.137C53.5456 313.818 53.2949 313.548 52.9824 313.326C52.6699 313.098 52.3151 312.906 51.918 312.75C51.5273 312.594 51.1237 312.438 50.707 312.281C50.2904 312.125 49.8835 311.952 49.4863 311.764C49.0957 311.575 48.7441 311.34 48.4316 311.061C48.1191 310.774 47.8685 310.426 47.6797 310.016C47.4909 309.605 47.3965 309.101 47.3965 308.502V308.238C47.3965 307.763 47.4844 307.317 47.6602 306.9C47.8424 306.484 48.0898 306.119 48.4023 305.807C48.7148 305.494 49.0794 305.25 49.4961 305.074C49.9193 304.892 50.3685 304.801 50.8438 304.801H51.7422C52.2174 304.801 52.6634 304.892 53.0801 305.074C53.4967 305.25 53.8613 305.494 54.1738 305.807C54.4863 306.119 54.7305 306.484 54.9062 306.9C55.0885 307.317 55.1797 307.763 55.1797 308.238V308.6L53.9199 308.805V308.238C53.9199 307.926 53.8613 307.636 53.7441 307.369C53.627 307.096 53.4674 306.858 53.2656 306.656C53.0638 306.454 52.8262 306.295 52.5527 306.178C52.2858 306.061 51.9961 306.002 51.6836 306.002H50.9023C50.5898 306.002 50.2969 306.061 50.0234 306.178C49.7565 306.295 49.5189 306.454 49.3105 306.656C49.1087 306.858 48.9492 307.096 48.832 307.369C48.7148 307.636 48.6562 307.926 48.6562 308.238V308.502C48.6562 308.951 48.7507 309.329 48.9395 309.635C49.1283 309.941 49.3789 310.204 49.6914 310.426C50.0039 310.641 50.3555 310.829 50.7461 310.992C51.1432 311.148 51.5501 311.311 51.9668 311.48C52.3835 311.643 52.7871 311.826 53.1777 312.027C53.5749 312.223 53.9297 312.467 54.2422 312.76C54.5547 313.046 54.8053 313.398 54.9941 313.814C55.1829 314.231 55.2773 314.739 55.2773 315.338V315.758ZM64.2715 316.256C64.2715 316.66 64.1934 317.04 64.0371 317.398C63.8874 317.757 63.679 318.069 63.4121 318.336C63.1452 318.603 62.8327 318.814 62.4746 318.971C62.1165 319.12 61.7357 319.195 61.332 319.195H60.5312C60.1276 319.195 59.7467 319.12 59.3887 318.971C59.0306 318.814 58.7181 318.603 58.4512 318.336C58.1842 318.069 57.9727 317.757 57.8164 317.398C57.6667 317.04 57.5918 316.66 57.5918 316.256V311.744C57.5918 311.34 57.6667 310.96 57.8164 310.602C57.9727 310.243 58.1842 309.931 58.4512 309.664C58.7181 309.397 59.0306 309.189 59.3887 309.039C59.7467 308.883 60.1276 308.805 60.5312 308.805H61.332C61.7357 308.805 62.1165 308.883 62.4746 309.039C62.8327 309.189 63.1452 309.397 63.4121 309.664C63.679 309.931 63.8874 310.243 64.0371 310.602C64.1934 310.96 64.2715 311.34 64.2715 311.744V314.098H58.793V316.324C58.793 316.565 58.8385 316.793 58.9297 317.008C59.0208 317.216 59.1445 317.398 59.3008 317.555C59.457 317.711 59.6393 317.835 59.8477 317.926C60.0625 318.017 60.2904 318.062 60.5312 318.062H61.332C61.5729 318.062 61.7975 318.017 62.0059 317.926C62.2207 317.835 62.4062 317.711 62.5625 317.555C62.7188 317.398 62.8424 317.216 62.9336 317.008C63.0247 316.793 63.0703 316.565 63.0703 316.324V315.66L64.2715 315.855V316.256ZM63.0703 311.676C63.0703 311.435 63.0247 311.21 62.9336 311.002C62.8424 310.787 62.7188 310.602 62.5625 310.445C62.4062 310.289 62.2207 310.165 62.0059 310.074C61.7975 309.983 61.5729 309.938 61.332 309.938H60.5312C60.2904 309.938 60.0625 309.983 59.8477 310.074C59.6393 310.165 59.457 310.289 59.3008 310.445C59.1445 310.602 59.0208 310.787 58.9297 311.002C58.8385 311.21 58.793 311.435 58.793 311.676V313.16H63.0703V311.676ZM73.3535 316.256C73.3535 316.66 73.2754 317.04 73.1191 317.398C72.9694 317.757 72.7611 318.069 72.4941 318.336C72.2272 318.603 71.9147 318.814 71.5566 318.971C71.1986 319.12 70.8177 319.195 70.4141 319.195H69.6133C69.2096 319.195 68.8288 319.12 68.4707 318.971C68.1126 318.814 67.8001 318.603 67.5332 318.336C67.2663 318.069 67.0547 317.757 66.8984 317.398C66.7487 317.04 66.6738 316.66 66.6738 316.256V311.744C66.6738 311.34 66.7487 310.96 66.8984 310.602C67.0547 310.243 67.2663 309.931 67.5332 309.664C67.8001 309.397 68.1126 309.189 68.4707 309.039C68.8288 308.883 69.2096 308.805 69.6133 308.805H70.4141C70.8177 308.805 71.1986 308.883 71.5566 309.039C71.9147 309.189 72.2272 309.397 72.4941 309.664C72.7611 309.931 72.9694 310.243 73.1191 310.602C73.2754 310.96 73.3535 311.34 73.3535 311.744V316.256ZM72.1523 311.676C72.1523 311.435 72.1068 311.21 72.0156 311.002C71.9245 310.787 71.8008 310.602 71.6445 310.445C71.4883 310.289 71.3027 310.165 71.0879 310.074C70.8796 309.983 70.6549 309.938 70.4141 309.938H69.6133C69.3724 309.938 69.1445 309.983 68.9297 310.074C68.7214 310.165 68.5391 310.289 68.3828 310.445C68.2266 310.602 68.1029 310.787 68.0117 311.002C67.9206 311.21 67.875 311.435 67.875 311.676V316.324C67.875 316.565 67.9206 316.793 68.0117 317.008C68.1029 317.216 68.2266 317.398 68.3828 317.555C68.5391 317.711 68.7214 317.835 68.9297 317.926C69.1445 318.017 69.3724 318.062 69.6133 318.062H70.4141C70.6549 318.062 70.8796 318.017 71.0879 317.926C71.3027 317.835 71.4883 317.711 71.6445 317.555C71.8008 317.398 71.9245 317.216 72.0156 317.008C72.1068 316.793 72.1523 316.565 72.1523 316.324V311.676ZM82.0352 319L81.3711 317.984C81.0977 318.355 80.7559 318.652 80.3457 318.873C79.9355 319.088 79.4863 319.195 78.998 319.195H78.6953C78.2917 319.195 77.9108 319.12 77.5527 318.971C77.1947 318.814 76.8822 318.603 76.6152 318.336C76.3483 318.069 76.1367 317.757 75.9805 317.398C75.8307 317.04 75.7559 316.66 75.7559 316.256V309H76.957V316.324C76.957 316.565 77.0026 316.793 77.0938 317.008C77.1849 317.216 77.3086 317.398 77.4648 317.555C77.6211 317.711 77.8034 317.835 78.0117 317.926C78.2266 318.017 78.4544 318.062 78.6953 318.062H79.4961C79.737 318.062 79.9616 318.017 80.1699 317.926C80.3848 317.835 80.5703 317.711 80.7266 317.555C80.8828 317.398 81.0065 317.216 81.0977 317.008C81.1888 316.793 81.2344 316.565 81.2344 316.324V309H82.4355V319H82.0352ZM85.2383 319V304.996H86.4395V319H85.2383ZM101.479 319L95.6387 308.805L95.5215 308.199V319H94.2617V304.996H94.916L100.756 315.201L100.883 315.797V304.996H102.143V319H101.479ZM111.039 319L110.375 318.004C110.102 318.362 109.76 318.652 109.35 318.873C108.939 319.088 108.49 319.195 108.002 319.195H107.699C107.296 319.195 106.915 319.12 106.557 318.971C106.199 318.814 105.886 318.603 105.619 318.336C105.352 318.069 105.141 317.757 104.984 317.398C104.835 317.04 104.76 316.66 104.76 316.256V316.158C104.76 315.755 104.835 315.374 104.984 315.016C105.141 314.658 105.352 314.345 105.619 314.078C105.886 313.811 106.199 313.603 106.557 313.453C106.915 313.297 107.296 313.219 107.699 313.219H110.238V311.676C110.238 311.435 110.193 311.21 110.102 311.002C110.01 310.787 109.887 310.602 109.73 310.445C109.574 310.289 109.389 310.165 109.174 310.074C108.965 309.983 108.741 309.938 108.5 309.938H107.797C107.556 309.938 107.328 309.983 107.113 310.074C106.905 310.165 106.723 310.289 106.566 310.445C106.41 310.602 106.286 310.787 106.195 311.002C106.104 311.21 106.059 311.435 106.059 311.676V312.037L104.857 311.842V311.744C104.857 311.34 104.932 310.96 105.082 310.602C105.238 310.243 105.45 309.931 105.717 309.664C105.984 309.397 106.296 309.189 106.654 309.039C107.012 308.883 107.393 308.805 107.797 308.805H108.5C108.904 308.805 109.285 308.883 109.643 309.039C110.001 309.189 110.313 309.397 110.58 309.664C110.847 309.931 111.055 310.243 111.205 310.602C111.361 310.96 111.439 311.34 111.439 311.744V319H111.039ZM110.238 314.156H107.699C107.458 314.156 107.23 314.202 107.016 314.293C106.807 314.384 106.625 314.511 106.469 314.674C106.312 314.83 106.189 315.016 106.098 315.23C106.007 315.439 105.961 315.663 105.961 315.904V316.324C105.961 316.565 106.007 316.793 106.098 317.008C106.189 317.216 106.312 317.398 106.469 317.555C106.625 317.711 106.807 317.835 107.016 317.926C107.23 318.017 107.458 318.062 107.699 318.062H108.5C108.741 318.062 108.965 318.017 109.174 317.926C109.389 317.835 109.574 317.711 109.73 317.555C109.887 317.398 110.01 317.216 110.102 317.008C110.193 316.793 110.238 316.565 110.238 316.324V314.156ZM117.484 319C117.12 319 116.775 318.932 116.449 318.795C116.13 318.658 115.85 318.469 115.609 318.229C115.375 317.988 115.186 317.708 115.043 317.389C114.906 317.07 114.838 316.728 114.838 316.363V310.143H113.041V309H114.838V306.598L116.039 306.402V309H118.578V310.143H116.039V316.422C116.039 316.624 116.075 316.812 116.146 316.988C116.225 317.158 116.329 317.307 116.459 317.438C116.589 317.568 116.742 317.672 116.918 317.75C117.094 317.822 117.283 317.857 117.484 317.857H118.578V319H117.484ZM121.098 306.598V304.996H122.494V306.598H121.098ZM121.195 319V309H122.396V319H121.195ZM131.889 316.256C131.889 316.66 131.811 317.04 131.654 317.398C131.505 317.757 131.296 318.069 131.029 318.336C130.762 318.603 130.45 318.814 130.092 318.971C129.734 319.12 129.353 319.195 128.949 319.195H128.148C127.745 319.195 127.364 319.12 127.006 318.971C126.648 318.814 126.335 318.603 126.068 318.336C125.801 318.069 125.59 317.757 125.434 317.398C125.284 317.04 125.209 316.66 125.209 316.256V311.744C125.209 311.34 125.284 310.96 125.434 310.602C125.59 310.243 125.801 309.931 126.068 309.664C126.335 309.397 126.648 309.189 127.006 309.039C127.364 308.883 127.745 308.805 128.148 308.805H128.949C129.353 308.805 129.734 308.883 130.092 309.039C130.45 309.189 130.762 309.397 131.029 309.664C131.296 309.931 131.505 310.243 131.654 310.602C131.811 310.96 131.889 311.34 131.889 311.744V316.256ZM130.688 311.676C130.688 311.435 130.642 311.21 130.551 311.002C130.46 310.787 130.336 310.602 130.18 310.445C130.023 310.289 129.838 310.165 129.623 310.074C129.415 309.983 129.19 309.938 128.949 309.938H128.148C127.908 309.938 127.68 309.983 127.465 310.074C127.257 310.165 127.074 310.289 126.918 310.445C126.762 310.602 126.638 310.787 126.547 311.002C126.456 311.21 126.41 311.435 126.41 311.676V316.324C126.41 316.565 126.456 316.793 126.547 317.008C126.638 317.216 126.762 317.398 126.918 317.555C127.074 317.711 127.257 317.835 127.465 317.926C127.68 318.017 127.908 318.062 128.148 318.062H128.949C129.19 318.062 129.415 318.017 129.623 317.926C129.838 317.835 130.023 317.711 130.18 317.555C130.336 317.398 130.46 317.216 130.551 317.008C130.642 316.793 130.688 316.565 130.688 316.324V311.676ZM139.77 319V311.676C139.77 311.435 139.724 311.21 139.633 311.002C139.542 310.787 139.418 310.602 139.262 310.445C139.105 310.289 138.92 310.165 138.705 310.074C138.497 309.983 138.272 309.938 138.031 309.938H137.23C136.99 309.938 136.762 309.983 136.547 310.074C136.339 310.165 136.156 310.289 136 310.445C135.844 310.602 135.72 310.787 135.629 311.002C135.538 311.21 135.492 311.435 135.492 311.676V319H134.291V309H134.691L135.346 310.016C135.619 309.645 135.961 309.352 136.371 309.137C136.788 308.915 137.24 308.805 137.729 308.805H138.031C138.435 308.805 138.816 308.883 139.174 309.039C139.532 309.189 139.844 309.397 140.111 309.664C140.378 309.931 140.587 310.243 140.736 310.602C140.893 310.96 140.971 311.34 140.971 311.744V319H139.77ZM149.652 319L148.988 318.004C148.715 318.362 148.373 318.652 147.963 318.873C147.553 319.088 147.104 319.195 146.615 319.195H146.312C145.909 319.195 145.528 319.12 145.17 318.971C144.812 318.814 144.499 318.603 144.232 318.336C143.965 318.069 143.754 317.757 143.598 317.398C143.448 317.04 143.373 316.66 143.373 316.256V316.158C143.373 315.755 143.448 315.374 143.598 315.016C143.754 314.658 143.965 314.345 144.232 314.078C144.499 313.811 144.812 313.603 145.17 313.453C145.528 313.297 145.909 313.219 146.312 313.219H148.852V311.676C148.852 311.435 148.806 311.21 148.715 311.002C148.624 310.787 148.5 310.602 148.344 310.445C148.188 310.289 148.002 310.165 147.787 310.074C147.579 309.983 147.354 309.938 147.113 309.938H146.41C146.169 309.938 145.941 309.983 145.727 310.074C145.518 310.165 145.336 310.289 145.18 310.445C145.023 310.602 144.9 310.787 144.809 311.002C144.717 311.21 144.672 311.435 144.672 311.676V312.037L143.471 311.842V311.744C143.471 311.34 143.546 310.96 143.695 310.602C143.852 310.243 144.063 309.931 144.33 309.664C144.597 309.397 144.91 309.189 145.268 309.039C145.626 308.883 146.007 308.805 146.41 308.805H147.113C147.517 308.805 147.898 308.883 148.256 309.039C148.614 309.189 148.926 309.397 149.193 309.664C149.46 309.931 149.669 310.243 149.818 310.602C149.975 310.96 150.053 311.34 150.053 311.744V319H149.652ZM148.852 314.156H146.312C146.072 314.156 145.844 314.202 145.629 314.293C145.421 314.384 145.238 314.511 145.082 314.674C144.926 314.83 144.802 315.016 144.711 315.23C144.62 315.439 144.574 315.663 144.574 315.904V316.324C144.574 316.565 144.62 316.793 144.711 317.008C144.802 317.216 144.926 317.398 145.082 317.555C145.238 317.711 145.421 317.835 145.629 317.926C145.844 318.017 146.072 318.062 146.312 318.062H147.113C147.354 318.062 147.579 318.017 147.787 317.926C148.002 317.835 148.188 317.711 148.344 317.555C148.5 317.398 148.624 317.216 148.715 317.008C148.806 316.793 148.852 316.565 148.852 316.324V314.156ZM152.855 319V304.996H154.057V319H152.855ZM55.2773 340.758C55.2773 341.233 55.1862 341.679 55.0039 342.096C54.8281 342.512 54.584 342.877 54.2715 343.189C53.959 343.502 53.5944 343.749 53.1777 343.932C52.7611 344.107 52.3151 344.195 51.8398 344.195H50.8438C50.3685 344.195 49.9193 344.107 49.4961 343.932C49.0794 343.749 48.7148 343.502 48.4023 343.189C48.0898 342.877 47.8424 342.512 47.6602 342.096C47.4844 341.679 47.3965 341.233 47.3965 340.758V329.996H48.6562V340.758C48.6562 341.07 48.7148 341.363 48.832 341.637C48.9492 341.904 49.1087 342.141 49.3105 342.35C49.5189 342.551 49.7565 342.711 50.0234 342.828C50.2969 342.945 50.5898 343.004 50.9023 343.004H51.7812C52.0938 343.004 52.3835 342.945 52.6504 342.828C52.9238 342.711 53.1615 342.551 53.3633 342.35C53.5651 342.141 53.7246 341.904 53.8418 341.637C53.959 341.363 54.0176 341.07 54.0176 340.758V329.996H55.2773V340.758ZM63.3633 344V336.676C63.3633 336.435 63.3177 336.21 63.2266 336.002C63.1354 335.787 63.0117 335.602 62.8555 335.445C62.6992 335.289 62.5137 335.165 62.2988 335.074C62.0905 334.983 61.8659 334.938 61.625 334.938H60.8242C60.5833 334.938 60.3555 334.983 60.1406 335.074C59.9323 335.165 59.75 335.289 59.5938 335.445C59.4375 335.602 59.3138 335.787 59.2227 336.002C59.1315 336.21 59.0859 336.435 59.0859 336.676V344H57.8848V334H58.2852L58.9395 335.016C59.2129 334.645 59.5547 334.352 59.9648 334.137C60.3815 333.915 60.834 333.805 61.3223 333.805H61.625C62.0286 333.805 62.4095 333.883 62.7676 334.039C63.1257 334.189 63.4382 334.397 63.7051 334.664C63.972 334.931 64.1803 335.243 64.3301 335.602C64.4863 335.96 64.5645 336.34 64.5645 336.744V344H63.3633ZM67.2695 331.598V329.996H68.666V331.598H67.2695ZM67.3672 344V334H68.5684V344H67.3672ZM74.5156 344H73.9199L70.375 334H71.5762L74.1836 341.578L74.2227 342.096L74.2617 341.578L76.8594 334H78.0605L74.5156 344ZM86.1465 341.256C86.1465 341.66 86.0684 342.04 85.9121 342.398C85.7624 342.757 85.554 343.069 85.2871 343.336C85.0202 343.603 84.7077 343.814 84.3496 343.971C83.9915 344.12 83.6107 344.195 83.207 344.195H82.4062C82.0026 344.195 81.6217 344.12 81.2637 343.971C80.9056 343.814 80.5931 343.603 80.3262 343.336C80.0592 343.069 79.8477 342.757 79.6914 342.398C79.5417 342.04 79.4668 341.66 79.4668 341.256V336.744C79.4668 336.34 79.5417 335.96 79.6914 335.602C79.8477 335.243 80.0592 334.931 80.3262 334.664C80.5931 334.397 80.9056 334.189 81.2637 334.039C81.6217 333.883 82.0026 333.805 82.4062 333.805H83.207C83.6107 333.805 83.9915 333.883 84.3496 334.039C84.7077 334.189 85.0202 334.397 85.2871 334.664C85.554 334.931 85.7624 335.243 85.9121 335.602C86.0684 335.96 86.1465 336.34 86.1465 336.744V339.098H80.668V341.324C80.668 341.565 80.7135 341.793 80.8047 342.008C80.8958 342.216 81.0195 342.398 81.1758 342.555C81.332 342.711 81.5143 342.835 81.7227 342.926C81.9375 343.017 82.1654 343.062 82.4062 343.062H83.207C83.4479 343.062 83.6725 343.017 83.8809 342.926C84.0957 342.835 84.2812 342.711 84.4375 342.555C84.5938 342.398 84.7174 342.216 84.8086 342.008C84.8997 341.793 84.9453 341.565 84.9453 341.324V340.66L86.1465 340.855V341.256ZM84.9453 336.676C84.9453 336.435 84.8997 336.21 84.8086 336.002C84.7174 335.787 84.5938 335.602 84.4375 335.445C84.2812 335.289 84.0957 335.165 83.8809 335.074C83.6725 334.983 83.4479 334.938 83.207 334.938H82.4062C82.1654 334.938 81.9375 334.983 81.7227 335.074C81.5143 335.165 81.332 335.289 81.1758 335.445C81.0195 335.602 80.8958 335.787 80.8047 336.002C80.7135 336.21 80.668 336.435 80.668 336.676V338.16H84.9453V336.676ZM91.4883 335.143C91.2474 335.143 91.0195 335.188 90.8047 335.279C90.5964 335.37 90.4141 335.494 90.2578 335.65C90.1016 335.807 89.9779 335.992 89.8867 336.207C89.7956 336.415 89.75 336.64 89.75 336.881V344H88.5488V334H88.9492L89.6035 335.016C89.877 334.645 90.2188 334.352 90.6289 334.137C91.0456 333.915 91.498 333.805 91.9863 333.805H92.6895V335.143H91.4883ZM101.166 341.461C101.166 341.865 101.085 342.236 100.922 342.574C100.759 342.906 100.538 343.193 100.258 343.434C99.9779 343.674 99.6523 343.863 99.2812 344C98.9167 344.13 98.5326 344.195 98.1289 344.195H97.3281C96.9245 344.195 96.5371 344.12 96.166 343.971C95.8014 343.814 95.4792 343.603 95.1992 343.336C94.9258 343.069 94.7044 342.757 94.5352 342.398C94.3724 342.04 94.291 341.66 94.291 341.256V340.855L95.4922 340.66V341.324C95.4922 341.565 95.541 341.793 95.6387 342.008C95.7428 342.216 95.8796 342.398 96.0488 342.555C96.2181 342.711 96.4134 342.835 96.6348 342.926C96.8561 343.017 97.0872 343.062 97.3281 343.062H98.1289C98.3698 343.062 98.6009 343.027 98.8223 342.955C99.0436 342.883 99.2389 342.783 99.4082 342.652C99.584 342.516 99.7207 342.353 99.8184 342.164C99.9225 341.975 99.9746 341.76 99.9746 341.52C99.9746 341.161 99.8965 340.868 99.7402 340.641C99.584 340.413 99.3757 340.224 99.1152 340.074C98.8613 339.918 98.5684 339.791 98.2363 339.693C97.9108 339.589 97.5755 339.488 97.2305 339.391C96.8854 339.286 96.5469 339.169 96.2148 339.039C95.8893 338.909 95.5964 338.74 95.3359 338.531C95.082 338.316 94.877 338.049 94.7207 337.73C94.5645 337.411 94.4863 337.014 94.4863 336.539C94.4863 336.135 94.5645 335.768 94.7207 335.436C94.877 335.097 95.0885 334.807 95.3555 334.566C95.6224 334.326 95.9316 334.14 96.2832 334.01C96.6413 333.873 97.0221 333.805 97.4258 333.805H98.1289C98.5326 333.805 98.9134 333.883 99.2715 334.039C99.6296 334.189 99.9421 334.397 100.209 334.664C100.476 334.931 100.684 335.243 100.834 335.602C100.99 335.96 101.068 336.34 101.068 336.744V336.783L99.8672 336.979V336.676C99.8672 336.435 99.8216 336.21 99.7305 336.002C99.6393 335.787 99.5156 335.602 99.3594 335.445C99.2031 335.289 99.0176 335.165 98.8027 335.074C98.5944 334.983 98.3698 334.938 98.1289 334.938H97.4258C97.1849 334.938 96.957 334.973 96.7422 335.045C96.5339 335.117 96.3516 335.221 96.1953 335.357C96.0391 335.488 95.9154 335.647 95.8242 335.836C95.7331 336.025 95.6875 336.24 95.6875 336.48C95.6875 336.826 95.7656 337.109 95.9219 337.33C96.0781 337.545 96.2832 337.727 96.5371 337.877C96.7975 338.027 97.0905 338.154 97.416 338.258C97.748 338.355 98.0833 338.46 98.4219 338.57C98.7669 338.674 99.1022 338.795 99.4277 338.932C99.7598 339.068 100.053 339.244 100.307 339.459C100.567 339.674 100.775 339.944 100.932 340.27C101.088 340.589 101.166 340.986 101.166 341.461ZM103.773 331.598V329.996H105.17V331.598H103.773ZM103.871 344V334H105.072V344H103.871ZM111.527 344C111.163 344 110.818 343.932 110.492 343.795C110.173 343.658 109.893 343.469 109.652 343.229C109.418 342.988 109.229 342.708 109.086 342.389C108.949 342.07 108.881 341.728 108.881 341.363V335.143H107.084V334H108.881V331.598L110.082 331.402V334H112.621V335.143H110.082V341.422C110.082 341.624 110.118 341.812 110.189 341.988C110.268 342.158 110.372 342.307 110.502 342.438C110.632 342.568 110.785 342.672 110.961 342.75C111.137 342.822 111.326 342.857 111.527 342.857H112.621V344H111.527ZM116.459 348.004H115.297L117.074 343.141L113.832 334H115.033L117.641 341.578L117.68 342.096L117.719 341.578L120.316 334H121.518L116.459 348.004Z" fill="#32386A"/>
<path d="M594.283 624.301V631H593.023V624.32L589.4 616.996H590.758L593.639 622.816L596.52 616.996H597.877L594.283 624.301ZM605.357 628.256C605.357 628.66 605.279 629.04 605.123 629.398C604.973 629.757 604.765 630.069 604.498 630.336C604.231 630.603 603.919 630.814 603.561 630.971C603.202 631.12 602.822 631.195 602.418 631.195H601.617C601.214 631.195 600.833 631.12 600.475 630.971C600.117 630.814 599.804 630.603 599.537 630.336C599.27 630.069 599.059 629.757 598.902 629.398C598.753 629.04 598.678 628.66 598.678 628.256V623.744C598.678 623.34 598.753 622.96 598.902 622.602C599.059 622.243 599.27 621.931 599.537 621.664C599.804 621.397 600.117 621.189 600.475 621.039C600.833 620.883 601.214 620.805 601.617 620.805H602.418C602.822 620.805 603.202 620.883 603.561 621.039C603.919 621.189 604.231 621.397 604.498 621.664C604.765 621.931 604.973 622.243 605.123 622.602C605.279 622.96 605.357 623.34 605.357 623.744V628.256ZM604.156 623.676C604.156 623.435 604.111 623.21 604.02 623.002C603.928 622.787 603.805 622.602 603.648 622.445C603.492 622.289 603.307 622.165 603.092 622.074C602.883 621.983 602.659 621.938 602.418 621.938H601.617C601.376 621.938 601.148 621.983 600.934 622.074C600.725 622.165 600.543 622.289 600.387 622.445C600.23 622.602 600.107 622.787 600.016 623.002C599.924 623.21 599.879 623.435 599.879 623.676V628.324C599.879 628.565 599.924 628.793 600.016 629.008C600.107 629.216 600.23 629.398 600.387 629.555C600.543 629.711 600.725 629.835 600.934 629.926C601.148 630.017 601.376 630.062 601.617 630.062H602.418C602.659 630.062 602.883 630.017 603.092 629.926C603.307 629.835 603.492 629.711 603.648 629.555C603.805 629.398 603.928 629.216 604.02 629.008C604.111 628.793 604.156 628.565 604.156 628.324V623.676ZM614.039 631L613.375 629.984C613.102 630.355 612.76 630.652 612.35 630.873C611.939 631.088 611.49 631.195 611.002 631.195H610.699C610.296 631.195 609.915 631.12 609.557 630.971C609.199 630.814 608.886 630.603 608.619 630.336C608.352 630.069 608.141 629.757 607.984 629.398C607.835 629.04 607.76 628.66 607.76 628.256V621H608.961V628.324C608.961 628.565 609.007 628.793 609.098 629.008C609.189 629.216 609.312 629.398 609.469 629.555C609.625 629.711 609.807 629.835 610.016 629.926C610.23 630.017 610.458 630.062 610.699 630.062H611.5C611.741 630.062 611.965 630.017 612.174 629.926C612.389 629.835 612.574 629.711 612.73 629.555C612.887 629.398 613.01 629.216 613.102 629.008C613.193 628.793 613.238 628.565 613.238 628.324V621H614.439V631H614.039ZM623.717 628.461C623.717 628.865 623.635 629.236 623.473 629.574C623.31 629.906 623.089 630.193 622.809 630.434C622.529 630.674 622.203 630.863 621.832 631C621.467 631.13 621.083 631.195 620.68 631.195H619.879C619.475 631.195 619.088 631.12 618.717 630.971C618.352 630.814 618.03 630.603 617.75 630.336C617.477 630.069 617.255 629.757 617.086 629.398C616.923 629.04 616.842 628.66 616.842 628.256V627.855L618.043 627.66V628.324C618.043 628.565 618.092 628.793 618.189 629.008C618.294 629.216 618.43 629.398 618.6 629.555C618.769 629.711 618.964 629.835 619.186 629.926C619.407 630.017 619.638 630.062 619.879 630.062H620.68C620.921 630.062 621.152 630.027 621.373 629.955C621.594 629.883 621.79 629.783 621.959 629.652C622.135 629.516 622.271 629.353 622.369 629.164C622.473 628.975 622.525 628.76 622.525 628.52C622.525 628.161 622.447 627.868 622.291 627.641C622.135 627.413 621.926 627.224 621.666 627.074C621.412 626.918 621.119 626.791 620.787 626.693C620.462 626.589 620.126 626.488 619.781 626.391C619.436 626.286 619.098 626.169 618.766 626.039C618.44 625.909 618.147 625.74 617.887 625.531C617.633 625.316 617.428 625.049 617.271 624.73C617.115 624.411 617.037 624.014 617.037 623.539C617.037 623.135 617.115 622.768 617.271 622.436C617.428 622.097 617.639 621.807 617.906 621.566C618.173 621.326 618.482 621.14 618.834 621.01C619.192 620.873 619.573 620.805 619.977 620.805H620.68C621.083 620.805 621.464 620.883 621.822 621.039C622.18 621.189 622.493 621.397 622.76 621.664C623.027 621.931 623.235 622.243 623.385 622.602C623.541 622.96 623.619 623.34 623.619 623.744V623.783L622.418 623.979V623.676C622.418 623.435 622.372 623.21 622.281 623.002C622.19 622.787 622.066 622.602 621.91 622.445C621.754 622.289 621.568 622.165 621.354 622.074C621.145 621.983 620.921 621.938 620.68 621.938H619.977C619.736 621.938 619.508 621.973 619.293 622.045C619.085 622.117 618.902 622.221 618.746 622.357C618.59 622.488 618.466 622.647 618.375 622.836C618.284 623.025 618.238 623.24 618.238 623.48C618.238 623.826 618.316 624.109 618.473 624.33C618.629 624.545 618.834 624.727 619.088 624.877C619.348 625.027 619.641 625.154 619.967 625.258C620.299 625.355 620.634 625.46 620.973 625.57C621.318 625.674 621.653 625.795 621.979 625.932C622.311 626.068 622.604 626.244 622.857 626.459C623.118 626.674 623.326 626.944 623.482 627.27C623.639 627.589 623.717 627.986 623.717 628.461ZM632.701 628.256C632.701 628.66 632.623 629.04 632.467 629.398C632.317 629.757 632.109 630.069 631.842 630.336C631.575 630.603 631.262 630.814 630.904 630.971C630.546 631.12 630.165 631.195 629.762 631.195H628.961C628.557 631.195 628.176 631.12 627.818 630.971C627.46 630.814 627.148 630.603 626.881 630.336C626.614 630.069 626.402 629.757 626.246 629.398C626.096 629.04 626.021 628.66 626.021 628.256V623.744C626.021 623.34 626.096 622.96 626.246 622.602C626.402 622.243 626.614 621.931 626.881 621.664C627.148 621.397 627.46 621.189 627.818 621.039C628.176 620.883 628.557 620.805 628.961 620.805H629.762C630.165 620.805 630.546 620.883 630.904 621.039C631.262 621.189 631.575 621.397 631.842 621.664C632.109 621.931 632.317 622.243 632.467 622.602C632.623 622.96 632.701 623.34 632.701 623.744V626.098H627.223V628.324C627.223 628.565 627.268 628.793 627.359 629.008C627.451 629.216 627.574 629.398 627.73 629.555C627.887 629.711 628.069 629.835 628.277 629.926C628.492 630.017 628.72 630.062 628.961 630.062H629.762C630.003 630.062 630.227 630.017 630.436 629.926C630.65 629.835 630.836 629.711 630.992 629.555C631.148 629.398 631.272 629.216 631.363 629.008C631.454 628.793 631.5 628.565 631.5 628.324V627.66L632.701 627.855V628.256ZM631.5 623.676C631.5 623.435 631.454 623.21 631.363 623.002C631.272 622.787 631.148 622.602 630.992 622.445C630.836 622.289 630.65 622.165 630.436 622.074C630.227 621.983 630.003 621.938 629.762 621.938H628.961C628.72 621.938 628.492 621.983 628.277 622.074C628.069 622.165 627.887 622.289 627.73 622.445C627.574 622.602 627.451 622.787 627.359 623.002C627.268 623.21 627.223 623.435 627.223 623.676V625.16H631.5V623.676ZM635.406 618.598V616.996H636.803V618.598H635.406ZM635.504 631V621H636.705V631H635.504ZM598.277 652.758C598.277 653.233 598.186 653.679 598.004 654.096C597.828 654.512 597.584 654.877 597.271 655.189C596.959 655.502 596.594 655.749 596.178 655.932C595.761 656.107 595.315 656.195 594.84 656.195H593.844C593.368 656.195 592.919 656.107 592.496 655.932C592.079 655.749 591.715 655.502 591.402 655.189C591.09 654.877 590.842 654.512 590.66 654.096C590.484 653.679 590.396 653.233 590.396 652.758V641.996H591.656V652.758C591.656 653.07 591.715 653.363 591.832 653.637C591.949 653.904 592.109 654.141 592.311 654.35C592.519 654.551 592.757 654.711 593.023 654.828C593.297 654.945 593.59 655.004 593.902 655.004H594.781C595.094 655.004 595.383 654.945 595.65 654.828C595.924 654.711 596.161 654.551 596.363 654.35C596.565 654.141 596.725 653.904 596.842 653.637C596.959 653.363 597.018 653.07 597.018 652.758V641.996H598.277V652.758ZM606.363 656V648.676C606.363 648.435 606.318 648.21 606.227 648.002C606.135 647.787 606.012 647.602 605.855 647.445C605.699 647.289 605.514 647.165 605.299 647.074C605.09 646.983 604.866 646.938 604.625 646.938H603.824C603.583 646.938 603.355 646.983 603.141 647.074C602.932 647.165 602.75 647.289 602.594 647.445C602.438 647.602 602.314 647.787 602.223 648.002C602.132 648.21 602.086 648.435 602.086 648.676V656H600.885V646H601.285L601.939 647.016C602.213 646.645 602.555 646.352 602.965 646.137C603.382 645.915 603.834 645.805 604.322 645.805H604.625C605.029 645.805 605.41 645.883 605.768 646.039C606.126 646.189 606.438 646.397 606.705 646.664C606.972 646.931 607.18 647.243 607.33 647.602C607.486 647.96 607.564 648.34 607.564 648.744V656H606.363ZM610.27 643.598V641.996H611.666V643.598H610.27ZM610.367 656V646H611.568V656H610.367ZM617.516 656H616.92L613.375 646H614.576L617.184 653.578L617.223 654.096L617.262 653.578L619.859 646H621.061L617.516 656ZM629.146 653.256C629.146 653.66 629.068 654.04 628.912 654.398C628.762 654.757 628.554 655.069 628.287 655.336C628.02 655.603 627.708 655.814 627.35 655.971C626.992 656.12 626.611 656.195 626.207 656.195H625.406C625.003 656.195 624.622 656.12 624.264 655.971C623.906 655.814 623.593 655.603 623.326 655.336C623.059 655.069 622.848 654.757 622.691 654.398C622.542 654.04 622.467 653.66 622.467 653.256V648.744C622.467 648.34 622.542 647.96 622.691 647.602C622.848 647.243 623.059 646.931 623.326 646.664C623.593 646.397 623.906 646.189 624.264 646.039C624.622 645.883 625.003 645.805 625.406 645.805H626.207C626.611 645.805 626.992 645.883 627.35 646.039C627.708 646.189 628.02 646.397 628.287 646.664C628.554 646.931 628.762 647.243 628.912 647.602C629.068 647.96 629.146 648.34 629.146 648.744V651.098H623.668V653.324C623.668 653.565 623.714 653.793 623.805 654.008C623.896 654.216 624.02 654.398 624.176 654.555C624.332 654.711 624.514 654.835 624.723 654.926C624.938 655.017 625.165 655.062 625.406 655.062H626.207C626.448 655.062 626.673 655.017 626.881 654.926C627.096 654.835 627.281 654.711 627.438 654.555C627.594 654.398 627.717 654.216 627.809 654.008C627.9 653.793 627.945 653.565 627.945 653.324V652.66L629.146 652.855V653.256ZM627.945 648.676C627.945 648.435 627.9 648.21 627.809 648.002C627.717 647.787 627.594 647.602 627.438 647.445C627.281 647.289 627.096 647.165 626.881 647.074C626.673 646.983 626.448 646.938 626.207 646.938H625.406C625.165 646.938 624.938 646.983 624.723 647.074C624.514 647.165 624.332 647.289 624.176 647.445C624.02 647.602 623.896 647.787 623.805 648.002C623.714 648.21 623.668 648.435 623.668 648.676V650.16H627.945V648.676ZM634.488 647.143C634.247 647.143 634.02 647.188 633.805 647.279C633.596 647.37 633.414 647.494 633.258 647.65C633.102 647.807 632.978 647.992 632.887 648.207C632.796 648.415 632.75 648.64 632.75 648.881V656H631.549V646H631.949L632.604 647.016C632.877 646.645 633.219 646.352 633.629 646.137C634.046 645.915 634.498 645.805 634.986 645.805H635.689V647.143H634.488ZM644.166 653.461C644.166 653.865 644.085 654.236 643.922 654.574C643.759 654.906 643.538 655.193 643.258 655.434C642.978 655.674 642.652 655.863 642.281 656C641.917 656.13 641.533 656.195 641.129 656.195H640.328C639.924 656.195 639.537 656.12 639.166 655.971C638.801 655.814 638.479 655.603 638.199 655.336C637.926 655.069 637.704 654.757 637.535 654.398C637.372 654.04 637.291 653.66 637.291 653.256V652.855L638.492 652.66V653.324C638.492 653.565 638.541 653.793 638.639 654.008C638.743 654.216 638.88 654.398 639.049 654.555C639.218 654.711 639.413 654.835 639.635 654.926C639.856 655.017 640.087 655.062 640.328 655.062H641.129C641.37 655.062 641.601 655.027 641.822 654.955C642.044 654.883 642.239 654.783 642.408 654.652C642.584 654.516 642.721 654.353 642.818 654.164C642.923 653.975 642.975 653.76 642.975 653.52C642.975 653.161 642.896 652.868 642.74 652.641C642.584 652.413 642.376 652.224 642.115 652.074C641.861 651.918 641.568 651.791 641.236 651.693C640.911 651.589 640.576 651.488 640.23 651.391C639.885 651.286 639.547 651.169 639.215 651.039C638.889 650.909 638.596 650.74 638.336 650.531C638.082 650.316 637.877 650.049 637.721 649.73C637.564 649.411 637.486 649.014 637.486 648.539C637.486 648.135 637.564 647.768 637.721 647.436C637.877 647.097 638.089 646.807 638.355 646.566C638.622 646.326 638.932 646.14 639.283 646.01C639.641 645.873 640.022 645.805 640.426 645.805H641.129C641.533 645.805 641.913 645.883 642.271 646.039C642.63 646.189 642.942 646.397 643.209 646.664C643.476 646.931 643.684 647.243 643.834 647.602C643.99 647.96 644.068 648.34 644.068 648.744V648.783L642.867 648.979V648.676C642.867 648.435 642.822 648.21 642.73 648.002C642.639 647.787 642.516 647.602 642.359 647.445C642.203 647.289 642.018 647.165 641.803 647.074C641.594 646.983 641.37 646.938 641.129 646.938H640.426C640.185 646.938 639.957 646.973 639.742 647.045C639.534 647.117 639.352 647.221 639.195 647.357C639.039 647.488 638.915 647.647 638.824 647.836C638.733 648.025 638.688 648.24 638.688 648.48C638.688 648.826 638.766 649.109 638.922 649.33C639.078 649.545 639.283 649.727 639.537 649.877C639.798 650.027 640.09 650.154 640.416 650.258C640.748 650.355 641.083 650.46 641.422 650.57C641.767 650.674 642.102 650.795 642.428 650.932C642.76 651.068 643.053 651.244 643.307 651.459C643.567 651.674 643.775 651.944 643.932 652.27C644.088 652.589 644.166 652.986 644.166 653.461ZM646.773 643.598V641.996H648.17V643.598H646.773ZM646.871 656V646H648.072V656H646.871ZM654.527 656C654.163 656 653.818 655.932 653.492 655.795C653.173 655.658 652.893 655.469 652.652 655.229C652.418 654.988 652.229 654.708 652.086 654.389C651.949 654.07 651.881 653.728 651.881 653.363V647.143H650.084V646H651.881V643.598L653.082 643.402V646H655.621V647.143H653.082V653.422C653.082 653.624 653.118 653.812 653.189 653.988C653.268 654.158 653.372 654.307 653.502 654.438C653.632 654.568 653.785 654.672 653.961 654.75C654.137 654.822 654.326 654.857 654.527 654.857H655.621V656H654.527ZM659.459 660.004H658.297L660.074 655.141L656.832 646H658.033L660.641 653.578L660.68 654.096L660.719 653.578L663.316 646H664.518L659.459 660.004Z" fill="#32386A"/>
</svg>
